<svg width="71" height="72" viewBox="0 0 71 72" fill="none" xmlns="http://www.w3.org/2000/svg">
<path d="M62.4024 0C62.1195 0 61.84 0.0147657 61.5641 0.042047C61.4577 0.0156094 61.3473 0 61.2329 0H19.4141C14.5203 0 10.5391 4.03735 10.5391 9.00002V14.625C10.5391 15.4017 11.16 16.0313 11.9258 16.0313C12.6915 16.0313 13.3125 15.4017 13.3125 14.625V9.00002C13.3125 5.58817 16.0496 2.81251 19.4141 2.81251H56.0852C54.6707 4.36698 53.8047 6.4419 53.8047 8.71877C53.8047 8.7663 53.8072 8.81313 53.8118 8.85939C53.8072 8.90566 53.8047 8.95249 53.8047 9.00002V18.6094C53.8047 19.386 54.4257 20.0156 55.1914 20.0156C55.9572 20.0156 56.5781 19.386 56.5781 18.6094V10.125H69.6133C70.379 10.125 71 9.49544 71 8.71877C71 3.91121 67.1431 0 62.4024 0ZM56.7464 7.31251C57.3702 4.73274 59.6687 2.81251 62.4025 2.81251C65.1363 2.81251 67.4346 4.73274 68.0585 7.31251H56.7464Z" fill="black"/>
<path d="M46.853 7.59227H38.0415C37.2757 7.59227 36.6548 8.22185 36.6548 8.99852C36.6548 9.7752 37.2757 10.4048 38.0415 10.4048H43.6814L27.9517 26.356L18.7311 17.0056C18.1895 16.4564 17.3117 16.4566 16.7699 17.0056L4.3241 29.6268C3.78259 30.176 3.78259 31.0664 4.3241 31.6157C4.59493 31.8902 4.94965 32.0275 5.30465 32.0275C5.65965 32.0275 6.01438 31.8902 6.2852 31.6156L17.7506 19.9887L26.9712 29.3391C27.5128 29.8883 28.3906 29.8883 28.9324 29.3391L45.4663 12.5724V17.9341C45.4663 18.7108 46.0872 19.3404 46.853 19.3404C47.6187 19.3404 48.2397 18.7108 48.2397 17.9341V8.99852C48.2397 8.22185 47.6187 7.59227 46.853 7.59227Z" fill="black"/>
<path d="M2.36699 33.5996C2.1092 33.338 1.75143 33.1875 1.38672 33.1875C1.02201 33.1875 0.664239 33.338 0.406309 33.5996C0.14824 33.8611 0 34.224 0 34.5938C0 34.9636 0.14824 35.3265 0.406309 35.588C0.664377 35.8496 1.02201 36.0001 1.38672 36.0001C1.75143 36.0001 2.1092 35.8496 2.36699 35.588C2.62506 35.3265 2.77344 34.9636 2.77344 34.5938C2.77344 34.224 2.62506 33.8611 2.36699 33.5996Z" fill="black"/>
<path d="M63.2358 44.1587C63.2359 43.3821 62.615 42.7525 61.8492 42.7525H51.3101V32.065C51.3101 31.2883 50.6892 30.6587 49.9234 30.6587C42.5828 30.6587 36.6109 36.7147 36.6109 44.1587C36.6109 51.6027 42.5828 57.6588 49.9234 57.6588C51.2731 57.6588 52.5762 57.4533 53.8047 57.0729V63.2812C53.8047 66.538 51.192 69.1875 47.9805 69.1875C44.769 69.1875 42.1563 66.538 42.1563 63.2812C42.1563 63.2375 42.1536 63.1943 42.1499 63.1517C42.1552 63.1018 42.1582 63.0513 42.1582 63C42.1582 62.2233 41.5372 61.5937 40.7715 61.5937H13.3125V31.504C13.3125 30.7273 12.6915 30.0978 11.9258 30.0978C11.16 30.0978 10.5391 30.7273 10.5391 31.504V61.5937H4.4375C3.67175 61.5937 3.05078 62.2233 3.05078 63C3.05078 67.9627 7.03205 72 11.9258 72H47.9805C52.7213 72 56.5781 68.0888 56.5781 63.2812V55.9663C56.5781 55.9274 56.5755 55.8891 56.5723 55.8509C60.5523 53.5143 63.2358 49.1484 63.2358 44.1587ZM11.9258 69.1875C9.03822 69.1875 6.61271 67.1428 5.98314 64.4062H39.4567C39.6907 66.2382 40.4857 67.8935 41.6631 69.1875H11.9258ZM49.9234 54.8463C44.1122 54.8463 39.3844 50.0519 39.3844 44.1587C39.3844 38.7421 43.3784 34.2538 48.5367 33.5633V44.1587C48.5367 44.9354 49.1577 45.565 49.9234 45.565H60.3717C59.6906 50.796 55.2646 54.8463 49.9234 54.8463Z" fill="black"/>
<path d="M54.6367 22.7852C53.871 22.7852 53.25 23.4148 53.25 24.1915V39.379C53.25 40.1557 53.871 40.7853 54.6367 40.7853H69.6133C70.379 40.7853 71 40.1557 71 39.379C71 30.2291 63.6594 22.7852 54.6367 22.7852ZM56.0234 37.9728V25.6689C62.4123 26.3283 67.5062 31.4937 68.1564 37.9728H56.0234Z" fill="black"/>
<path d="M29.2598 45.5626H17.334C16.5682 45.5626 15.9473 46.1921 15.9473 46.9688C15.9473 47.7455 16.5682 48.3751 17.334 48.3751H29.2598C30.0255 48.3751 30.6465 47.7455 30.6465 46.9688C30.6465 46.1921 30.0255 45.5626 29.2598 45.5626Z" fill="black"/>
<path d="M35.7186 52.7246C35.4608 52.463 35.103 52.3126 34.7383 52.3126C34.3736 52.3126 34.0158 52.463 33.7579 52.7246C33.4999 52.9862 33.3516 53.349 33.3516 53.7188C33.3516 54.0887 33.4998 54.4515 33.7579 54.7131C34.0159 54.9746 34.3736 55.1251 34.7383 55.1251C35.103 55.1251 35.4608 54.9746 35.7186 54.7131C35.9765 54.4515 36.125 54.0887 36.125 53.7188C36.125 53.349 35.9766 52.9862 35.7186 52.7246Z" fill="black"/>
<path d="M29.2598 52.3126H17.334C16.5682 52.3126 15.9473 52.9422 15.9473 53.7188C15.9473 54.4955 16.5682 55.1251 17.334 55.1251H29.2598C30.0255 55.1251 30.6465 54.4955 30.6465 53.7188C30.6465 52.9422 30.0255 52.3126 29.2598 52.3126Z" fill="black"/>
<path d="M22.1069 38.8126H17.334C16.5682 38.8126 15.9473 39.4421 15.9473 40.2188C15.9473 40.9955 16.5682 41.6251 17.334 41.6251H22.1069C22.8727 41.6251 23.4937 40.9955 23.4937 40.2188C23.4937 39.4421 22.8727 38.8126 22.1069 38.8126Z" fill="black"/>
</svg>
