<svg width="481" height="269" viewBox="0 0 481 269" fill="none" xmlns="http://www.w3.org/2000/svg">
<path d="M314.59 39.7554C313.381 39.2718 312.655 38.0627 312.655 36.7328V32.743C312.655 31.8967 312.051 31.2922 311.205 31.2922H306.731C304.313 31.2922 302.258 29.2368 302.258 26.8187V10.1341C302.258 7.71602 304.313 5.66064 306.731 5.66064H335.264C337.682 5.66064 339.738 7.71602 339.738 10.1341V26.8187C339.738 29.2368 337.682 31.2922 335.264 31.2922H326.318C325.955 31.2922 325.592 31.4131 325.35 31.6549L318.096 38.9091C317.492 39.5136 316.645 39.8763 315.799 39.8763C315.436 39.9972 314.953 39.8763 314.59 39.7554ZM306.731 7.5951C305.28 7.5951 304.071 8.80415 304.071 10.255V26.9396C304.071 28.3905 305.28 29.5995 306.731 29.5995H311.205C313.018 29.5995 314.469 31.0503 314.469 32.8639V36.8537C314.469 37.4582 314.832 37.9418 315.315 38.1836C315.92 38.4254 316.403 38.3045 316.887 37.8209L324.141 30.5667C324.746 29.9622 325.592 29.5995 326.438 29.5995H335.385C336.836 29.5995 338.045 28.3905 338.045 26.9396V10.255C338.045 8.80415 336.836 7.5951 335.385 7.5951H306.731Z" fill="#58CEA5" stroke="#58CEA5" stroke-width="1.5"/>
<path d="M326.802 18.7176C326.802 17.2668 328.011 16.0577 329.462 16.0577C330.913 16.0577 332.122 17.2668 332.122 18.7176C332.122 20.1685 330.913 21.3775 329.462 21.3775C328.011 21.3775 326.802 20.1685 326.802 18.7176ZM327.649 18.7176C327.649 19.6848 328.495 20.5312 329.462 20.5312C330.429 20.5312 331.276 19.6848 331.276 18.7176C331.276 17.7504 330.429 16.9041 329.462 16.9041C328.495 16.9041 327.649 17.7504 327.649 18.7176Z" fill="#58CEA5" stroke="#58CEA5" stroke-width="1.5"/>
<path d="M318.34 19.2015C318.34 17.7507 319.55 16.5416 321 16.5416C322.451 16.5416 323.66 17.7507 323.66 19.2015C323.66 20.6523 322.451 21.8613 321 21.8613C319.55 21.8613 318.34 20.6523 318.34 19.2015ZM319.187 19.2015C319.187 20.1687 320.033 21.015 321 21.015C321.968 21.015 322.814 20.1687 322.814 19.2015C322.814 18.2343 321.968 17.388 321 17.388C320.033 17.388 319.187 18.2343 319.187 19.2015Z" fill="#58CEA5" stroke="#58CEA5" stroke-width="1.5"/>
<path d="M310.24 19.2015C310.24 17.7507 311.449 16.5416 312.9 16.5416C314.351 16.5416 315.56 17.7507 315.56 19.2015C315.56 20.6523 314.351 21.8613 312.9 21.8613C311.449 21.8613 310.24 20.6523 310.24 19.2015ZM311.207 19.2015C311.207 20.1687 312.054 21.015 313.021 21.015C313.988 21.015 314.835 20.1687 314.835 19.2015C314.835 18.2343 313.988 17.388 313.021 17.388C311.933 17.388 311.207 18.2343 311.207 19.2015Z" fill="#58CEA5" stroke="#58CEA5" stroke-width="1.5"/>
<path d="M466.081 92.8623H404.541V102.655H466.081V92.8623Z" fill="#91E1C1"/>
<path d="M480.348 110.273H404.541V116.56H480.348V110.273Z" fill="#91E1C1"/>
<path d="M480.348 124.419H404.541V130.706H480.348V124.419Z" fill="#91E1C1"/>
<path d="M75.8051 212.848H14.2654V222.641H75.8051V212.848Z" fill="#BBEDD9"/>
<path d="M75.8063 230.258H0V236.545H75.8063V230.258Z" fill="#BBEDD9"/>
<path d="M75.8063 244.404H0V250.691H75.8063V244.404Z" fill="#BBEDD9"/>
<path d="M90.2049 82.3251V82.3248C90.2049 78.4903 93.2453 75.4498 97.0798 75.4497C97.0798 75.4497 97.0799 75.4497 97.08 75.4497L385.192 75.5706C389.027 75.5706 392.067 78.6111 392.067 82.4454L391.947 261.624C391.947 265.459 388.906 268.499 385.072 268.499L96.9593 268.378C93.1245 268.378 90.084 265.338 90.084 261.503L90.2049 82.3251Z" fill="white" stroke="#58CEA5"/>
<path d="M392.446 88.1283V82.5667C392.446 78.456 389.182 75.1916 385.071 75.1916L97.0799 74.9498C92.9692 74.9498 89.7048 78.2142 89.7048 82.3249V88.0074L392.446 88.1283Z" fill="#58CEA5"/>
<path d="M365.726 82.4456C365.726 83.4128 365.001 84.1382 364.034 84.1382C363.066 84.1382 362.341 83.4128 362.341 82.4456C362.341 81.4783 363.066 80.7529 364.034 80.7529C365.001 80.7529 365.726 81.4783 365.726 82.4456Z" fill="white"/>
<path d="M372.618 82.4456C372.618 83.4128 371.893 84.1382 370.926 84.1382C369.959 84.1382 369.233 83.4128 369.233 82.4456C369.233 81.4783 369.959 80.7529 370.926 80.7529C371.772 80.7529 372.618 81.4783 372.618 82.4456Z" fill="white"/>
<path d="M379.389 82.4456C379.389 83.4128 378.663 84.1382 377.696 84.1382C376.729 84.1382 376.003 83.4128 376.003 82.4456C376.003 81.4783 376.729 80.7529 377.696 80.7529C378.663 80.7529 379.389 81.4783 379.389 82.4456Z" fill="white"/>
<path opacity="0.81" d="M364.155 109.408H115.336V243.973H364.155V109.408Z" fill="#AFF5DA"/>
<path opacity="0.1" d="M320.992 109.408H158.74V197.063H320.992V109.408Z" fill="#599AF2"/>
<path opacity="0.1" d="M279.521 109.408H200.088V152.328H279.521V109.408Z" fill="#599AF2"/>
<path d="M321.596 198.996L335.62 219.308C335.862 219.55 335.379 218.341 335.62 217.978L357.625 181.828H357.504L359.438 178.805L366.33 167.44C361.373 162.242 360.043 150.877 360.164 150.877L357.746 143.139C357.262 141.688 357.867 140.116 359.196 139.512C360.768 138.786 362.461 139.633 362.944 141.204C362.944 141.204 364.395 145.678 365.242 148.58C365.604 149.789 367.297 149.909 367.901 148.7C368.627 147.008 368.627 144.952 368.385 143.381C368.385 143.26 364.153 123.432 364.153 123.432C363.791 121.86 364.758 120.409 366.33 120.046C367.902 120.046 369.473 121.255 369.836 122.827L372.738 136.731C372.859 137.336 373.463 137.819 374.068 137.819H374.551C375.277 137.819 375.881 137.215 376.002 136.489L377.211 118.716C377.332 117.266 378.42 115.936 379.871 115.936C381.564 115.936 382.893 117.266 382.773 118.958L381.564 136.247C381.443 137.094 382.047 137.94 383.014 138.182C384.103 138.424 385.312 137.698 385.553 136.61L388.939 121.497C389.301 120.046 390.631 118.958 392.082 119.2C393.775 119.442 394.863 121.014 394.5 122.585L390.873 138.182C390.631 139.27 390.752 140.358 391.115 141.325C391.599 142.534 393.291 142.534 393.775 141.325L396.918 134.797C397.523 133.467 399.095 132.741 400.424 133.225C401.996 133.829 402.722 135.643 401.996 137.094L395.588 151.481C390.873 164.418 385.674 172.035 383.861 174.332L378.057 186.543L376.727 189.324L346.502 252.556C341.786 262.47 328.729 264.768 320.991 257.03L295.36 228.013L321.596 198.996Z" fill="#F9DCD2"/>
<path d="M378.055 158.13C378.538 158.13 378.78 157.768 378.659 157.405C378.297 154.14 377.087 151.722 374.911 150.272C371.405 147.853 366.811 148.821 366.69 148.942C366.327 149.063 366.085 149.425 366.206 149.667C366.327 150.03 366.69 150.272 366.932 150.151C366.932 150.151 371.163 149.183 374.186 151.36C375.999 152.569 376.967 154.745 377.329 157.526C377.45 157.888 377.692 158.13 378.055 158.13Z" fill="#37474F"/>
<path d="M286.654 228.254L294.755 230.914L326.069 197.061C303.218 154.02 275.169 137.819 258.847 131.774C252.439 129.356 245.789 128.267 238.898 128.267H216.168C210.002 128.267 203.957 129.235 198.153 131.411C148.583 150.393 130.568 226.804 130.568 226.804L137.339 227.892L169.983 233.332V268.273H286.654V228.254Z" fill="#37474F"/>
<path d="M169.499 233.333L137.701 228.255L137.58 268.395H169.499V233.333Z" fill="#F9DCD2"/>
<path d="M286.533 247.116C286.895 247.116 287.137 246.874 287.137 246.511V218.099C287.137 217.736 286.895 217.494 286.533 217.494C286.17 217.494 285.928 217.736 285.928 218.099V246.511C285.807 246.874 286.17 247.116 286.533 247.116Z" fill="#124CA0"/>
<path d="M169.619 247.72C169.982 247.72 170.224 247.478 170.224 247.115V218.703C170.224 218.34 169.982 218.099 169.619 218.099C169.257 218.099 169.015 218.34 169.015 218.703V247.115C169.015 247.357 169.257 247.72 169.619 247.72Z" fill="#124CA0"/>
<path d="M273.236 29.4905C266.465 14.4985 254.375 20.5437 254.375 20.5437C250.869 11.7177 240.955 1.32005 227.293 0.11102C217.379 -0.735303 212.422 3.49629 209.157 4.70533C201.42 0.352811 193.803 0.111012 188.241 6.03527C180.141 14.7403 183.405 22.599 185.581 25.9843C186.186 27.3142 189.087 31.7876 191.747 33.2385C187.274 43.878 183.768 61.288 207.586 62.8598L257.398 65.3987C257.398 65.3987 261.146 62.1343 265.256 57.2982C271.181 50.044 277.709 39.1627 273.236 29.4905Z" fill="#373449"/>
<path d="M265.254 57.2991C261.264 62.2561 257.395 65.3996 257.395 65.3996L255.702 46.2969C248.327 45.8133 246.393 40.4935 246.272 35.6574L233.577 35.5365C215.442 37.8336 199.966 35.1738 196.46 34.4484L195.614 34.5693C195.493 34.6902 195.372 34.932 195.251 35.0529V56.09H194.405C188.964 56.09 184.49 60.4426 184.49 66.0041V67.0922C184.49 72.5329 188.843 77.0063 194.405 77.0063H195.251V91.2729C195.251 102.154 202.989 109.408 209.88 110.617L207.462 138.546C207.462 146.042 213.507 152.208 221.124 152.208H230.192C238.292 152.208 244.942 145.679 244.942 137.458L242.524 110.859C252.438 110.859 260.539 102.759 260.539 92.8446V77.0063H260.78C266.221 77.0063 270.694 72.6538 270.694 67.0922V66.0041C270.574 62.1352 268.397 58.8708 265.254 57.2991Z" fill="#F9DCD2"/>
<path opacity="0.27" d="M242.16 110.737L243.369 122.949L210.725 110.495C211.33 110.616 212.055 110.737 212.781 110.737H242.16Z" fill="#37474F"/>
<path d="M230.675 99.2514C230.796 99.2514 230.917 99.2514 231.038 99.1305C231.4 99.0096 231.4 98.5259 231.28 98.2841C230.312 96.5915 228.62 95.6243 226.685 95.6243C224.751 95.6243 223.058 96.5915 222.091 98.2841C221.97 98.6469 221.97 99.0096 222.333 99.1305C222.695 99.2514 223.058 99.2514 223.179 98.8887C223.904 97.6796 225.234 96.8333 226.685 96.8333C228.136 96.8333 229.466 97.5587 230.191 98.8887C230.312 99.1305 230.433 99.2514 230.675 99.2514Z" fill="#37474F"/>
<path d="M266.828 66.6076C267.07 66.6076 267.191 66.3658 267.191 66.2449C267.191 61.7715 263.08 61.6506 262.959 61.6506C262.717 61.6506 262.596 61.8924 262.596 62.0133C262.596 62.2552 262.838 62.3761 262.959 62.3761C263.08 62.3761 266.344 62.4969 266.344 66.124C266.344 66.4867 266.586 66.6076 266.828 66.6076Z" fill="#37474F"/>
<path d="M188.12 66.6071C187.878 66.6071 187.757 66.3653 187.757 66.2444C187.757 61.771 191.868 61.771 191.989 61.771C192.231 61.771 192.352 62.0128 192.352 62.1337C192.352 62.3755 192.11 62.4964 191.989 62.4964C191.868 62.4964 188.604 62.4964 188.604 66.2444C188.483 66.3653 188.241 66.6071 188.12 66.6071Z" fill="#37474F"/>
<path d="M210.728 66.1242C209.761 66.1242 208.915 65.2779 208.915 64.3107V60.8045C208.915 59.8373 209.761 58.991 210.728 58.991C211.696 58.991 212.542 59.8373 212.542 60.8045V64.3107C212.421 65.2779 211.696 66.1242 210.728 66.1242Z" fill="black"/>
<path d="M237.929 66.1242C236.962 66.1242 236.115 65.2779 236.115 64.3107V60.8045C236.115 59.8373 236.962 58.991 237.929 58.991C238.896 58.991 239.743 59.8373 239.743 60.8045V64.3107C239.743 65.2779 238.896 66.1242 237.929 66.1242Z" fill="black"/>
<path d="M217.255 52.462C216.408 53.0666 215.32 53.0666 214.232 53.0666C213.144 53.0666 212.056 53.1875 211.089 53.3084C210.122 53.4293 209.033 53.5502 207.945 53.792C206.857 53.9129 205.769 54.2756 204.802 53.792C203.955 53.4293 203.472 52.2202 204.318 50.5276C205.044 48.9559 207.341 47.0214 210.484 46.6587C213.628 46.296 216.167 47.7468 217.134 49.0768C218.343 50.6485 218.101 51.9784 217.255 52.462Z" fill="#373449"/>
<path d="M246.997 55.3644C245.908 55.6062 244.82 55.2435 243.732 55.0017C242.644 54.639 241.435 54.3972 240.468 54.1554C239.501 53.9136 238.291 53.7927 237.082 53.5509C235.873 53.3091 234.664 53.3091 233.939 52.5836C233.214 51.9791 233.214 50.5283 234.785 49.1983C236.236 47.8684 239.259 46.6594 242.523 47.3848C245.787 48.1102 247.843 50.2865 248.206 51.9791C248.81 53.9136 248.085 55.1226 246.997 55.3644Z" fill="#373449"/>
<path d="M210.486 66.8494C211.453 66.8494 212.541 66.6076 213.871 66.0031C214.234 65.8822 214.354 65.3986 214.113 65.1568C213.992 64.7941 213.508 64.6732 213.266 64.915C210.244 66.3658 208.067 65.0359 207.947 64.915C207.705 64.6732 207.221 64.7941 207.1 65.1568C206.858 65.3986 206.979 65.8822 207.221 66.0031C207.342 66.0031 208.551 66.8494 210.486 66.8494Z" fill="#37474F"/>
<path d="M237.688 66.8494C238.656 66.8494 239.744 66.6076 241.074 66.0031C241.436 65.8822 241.557 65.3986 241.315 65.1568C241.195 64.7941 240.711 64.6732 240.469 64.915C237.447 66.3658 235.27 65.0359 235.149 64.915C234.908 64.6732 234.424 64.7941 234.303 65.1568C234.061 65.3986 234.182 65.8822 234.424 66.0031C234.545 66.0031 235.754 66.8494 237.688 66.8494Z" fill="#37474F"/>
<path d="M225.962 77.6104H232.853C233.095 77.6104 233.337 77.3686 233.337 77.1268C233.337 76.885 233.095 76.6431 232.853 76.6431H225.962C223.302 76.6431 221.247 74.4669 221.247 71.9279V70.598C221.247 69.8726 221.851 69.2681 222.577 69.2681C224.753 69.2681 226.083 67.5754 226.083 65.0364L226.325 58.2658C226.325 58.024 226.083 57.7822 225.841 57.7822C225.599 57.7822 225.358 58.024 225.358 58.2658L225.116 65.0364C225.116 65.7619 224.874 68.3008 222.577 68.3008C221.247 68.3008 220.159 69.389 220.159 70.7189V72.0488C220.28 74.9505 222.819 77.6104 225.962 77.6104Z" fill="#37474F"/>
<path d="M227.049 93.9317H224.147C222.697 93.9317 221.608 92.8436 221.608 91.3927V84.6221L237.447 80.6323V83.4131C237.447 89.2165 232.852 93.9317 227.049 93.9317Z" fill="white"/>
<path d="M208.672 76.642C202.022 76.642 196.582 71.2013 196.582 64.5516C196.582 57.902 202.022 52.4613 208.672 52.4613C215.322 52.4613 220.762 57.902 220.762 64.5516C220.762 71.3222 215.322 76.7629 208.672 76.642ZM208.672 53.6703C202.627 53.6703 197.791 58.5065 197.791 64.5516C197.791 70.5968 202.627 75.4329 208.672 75.4329C214.717 75.4329 219.553 70.5968 219.553 64.5516C219.553 58.6274 214.717 53.6703 208.672 53.6703Z" fill="#3E479B"/>
<path d="M242.403 75.4332C239.139 75.4332 236.116 74.2242 233.819 71.927C231.522 69.6299 230.313 66.6073 230.313 63.3429C230.313 60.0785 231.522 57.0559 233.819 54.7588C236.116 52.4616 239.139 51.2526 242.403 51.2526C245.668 51.2526 248.69 52.4616 250.987 54.7588C253.285 57.0559 254.494 60.0785 254.494 63.3429C254.494 66.6073 253.285 69.6299 250.987 71.927C248.69 74.2242 245.668 75.5541 242.403 75.4332ZM242.403 52.4616C239.502 52.4616 236.721 53.5497 234.666 55.6051C232.61 57.6604 231.522 60.4412 231.522 63.3429C231.522 66.2446 232.61 69.0253 234.666 71.0807C236.721 73.1361 239.502 74.2242 242.403 74.2242C245.305 74.2242 248.086 73.1361 250.141 71.0807C252.197 69.0253 253.285 66.2446 253.285 63.3429C253.285 60.4412 252.197 57.6604 250.141 55.6051C248.086 53.6706 245.305 52.4616 242.403 52.4616Z" fill="#3E479B"/>
<path d="M219.795 62.3759C219.675 62.3759 219.433 62.255 219.312 62.1341C219.07 61.8923 219.191 61.5296 219.433 61.2878C219.554 61.2878 226.082 56.0889 231.402 61.2878C231.644 61.5296 231.644 61.8923 231.402 62.1341C231.16 62.3759 230.798 62.3759 230.556 62.1341C226.082 57.6607 220.4 62.0132 220.158 62.1341C220.037 62.3759 219.916 62.3759 219.795 62.3759Z" fill="#3E479B"/>
</svg>
